<svg width="115" height="33" viewBox="0 0 115 33" fill="none" xmlns="http://www.w3.org/2000/svg">
<path fill-rule="evenodd" clip-rule="evenodd" d="M10.7205 0L0.198242 8.04992V14.5186L10.7205 6.84942V0Z" fill="#1E89EF"/>
<path fill-rule="evenodd" clip-rule="evenodd" d="M81.4274 28.6656H85.2597L82.0207 23.5279L84.9621 18.8494H81.3118L79.0635 22.695V15.3047H75.8126V28.6656H79.0635V24.5144L81.4274 28.6656ZM29.7578 23.8623C29.7578 26.9713 31.9684 29.0702 35.0719 29.0702C38.1752 29.0702 40.3858 26.9713 40.3858 23.8623V16.1141H36.9584V23.7973C36.9584 25.0325 36.1916 25.8305 35.0719 25.8305C33.952 25.8305 33.1852 25.0325 33.1852 23.7973V16.1141H29.7578V23.8623ZM42.7471 16.1141V28.6653H46.2897V16.1141H42.7471ZM59.7622 22.0378L59.7626 22.0379C60.9433 22.5986 61.6843 23.7216 61.6843 25.0913C61.6843 27.1249 59.9321 28.6653 57.6191 28.6653H51.8435V16.1141H57.5035C59.7254 16.1141 61.3467 17.472 61.3467 19.3263C61.3467 20.4479 60.7196 21.4568 59.7622 22.0378ZM58.1418 19.9604H58.142C58.142 20.5638 57.7206 20.9726 57.0374 20.9726H55.3866V18.9482H57.0372C57.7204 18.9482 58.1418 19.357 58.1418 19.9604ZM57.2845 25.8319C58.041 25.8319 58.5356 25.3323 58.5356 24.6117C58.5356 23.9022 58.041 23.4026 57.2845 23.4026H55.3866V25.8319H57.2845ZM73.8438 18.8418L71.4117 18.8416L71.0779 19.6067C70.2956 18.9326 69.299 18.5435 68.1832 18.5435C65.2864 18.5435 63.2158 20.7243 63.2158 23.7884C63.2158 26.8632 65.2864 29.0702 68.1832 29.0702C69.2835 29.0702 70.266 28.6921 71.0417 28.0358L71.3212 28.7355H73.8438V18.8418ZM68.5304 26.2364C69.7782 26.2364 70.6954 25.2829 70.6954 24.0057C70.6954 22.7362 69.7782 21.7827 68.5304 21.7827C67.2751 21.7827 66.3655 22.7362 66.3655 24.0057C66.3655 25.2829 67.2826 26.2364 68.5304 26.2364ZM95.8875 23.713L95.8873 23.7134C95.8873 24.011 95.8626 24.3087 95.8205 24.6142H88.8401C89.052 25.7474 89.7369 26.3334 90.7593 26.3334C91.5157 26.3334 92.1476 25.9852 92.4589 25.4069H95.681C95.0195 27.6616 93.1178 29.0702 90.7593 29.0702C87.8261 29.0702 85.6531 26.8173 85.6531 23.7992C85.6531 20.7705 87.8087 18.5435 90.7593 18.5435C93.7894 18.5435 95.8875 20.8153 95.8875 23.713ZM88.8019 22.9975C89.0733 21.952 89.7529 21.378 90.7304 21.378C91.7425 21.378 92.4439 21.9456 92.7382 22.9975H88.8019ZM102.878 18.9482L104.212 21.9965H102.467C101.288 21.9965 100.794 22.5138 100.794 23.7473V28.6652H97.4623V18.9942H99.6942L100.214 20.0675C100.896 19.2786 101.727 18.9482 102.878 18.9482ZM114.782 18.9482H111.249L109.361 24.3123L107.335 18.9482H103.761L107.706 27.8813C107.261 29.093 106.881 29.4272 105.623 29.4272H104.719L105.845 32.3091C108.31 32.3091 109.493 31.2326 110.78 28.2524L114.782 18.9482Z" fill="#232730"/>
<path fill-rule="evenodd" clip-rule="evenodd" d="M12.3314 26.1188C9.79264 26.5902 7.35245 24.9142 6.88108 22.3754C6.40987 19.8364 8.0858 17.3963 10.6246 16.925C13.1634 16.4536 15.6036 18.1297 16.075 20.6685C16.5464 23.2072 14.8702 25.6474 12.3314 26.1188ZM21.4626 15.8633C18.3374 10.3492 11.334 8.41232 5.81989 11.5374C0.305583 14.6624 -1.63111 21.6658 1.49395 27.1801C4.61901 32.6942 11.6226 34.6311 17.1365 31.506C22.6508 28.3811 24.5875 21.3774 21.4626 15.8633Z" fill="#232730"/>
<mask id="mask0" mask-type="alpha" maskUnits="userSpaceOnUse" x="0" y="10" width="23" height="23">
<path fill-rule="evenodd" clip-rule="evenodd" d="M12.3314 26.1188C9.79264 26.5902 7.35245 24.9142 6.88108 22.3754C6.40987 19.8364 8.0858 17.3963 10.6246 16.925C13.1634 16.4536 15.6036 18.1297 16.075 20.6685C16.5464 23.2072 14.8702 25.6474 12.3314 26.1188ZM21.4626 15.8633C18.3374 10.3492 11.334 8.41232 5.81989 11.5374C0.305583 14.6624 -1.63111 21.6658 1.49395 27.1801C4.61901 32.6942 11.6226 34.6311 17.1365 31.506C22.6508 28.3811 24.5875 21.3774 21.4626 15.8633Z" fill="white"/>
</mask>
<g mask="url(#mask0)">
</g>
</svg>
